<svg xmlns="http://www.w3.org/2000/svg" xmlns:xlink="http://www.w3.org/1999/xlink" width="200" zoomAndPan="magnify" viewBox="0 0 150 63.749997" height="85" preserveAspectRatio="xMidYMid meet" version="1.0"><defs><g/><clipPath id="9c5692371d"><path d="M 109 0 L 149.707031 0 L 149.707031 5 L 109 5 Z M 109 0 " clip-rule="nonzero"/></clipPath><clipPath id="14a6e2d1b9"><path d="M 145 0 L 149.707031 0 L 149.707031 41 L 145 41 Z M 145 0 " clip-rule="nonzero"/></clipPath><clipPath id="2c185192a6"><path d="M 0.292969 58 L 41 58 L 41 63.5 L 0.292969 63.5 Z M 0.292969 58 " clip-rule="nonzero"/></clipPath><clipPath id="7b4cea5481"><path d="M 0.292969 22 L 5 22 L 5 63.5 L 0.292969 63.5 Z M 0.292969 22 " clip-rule="nonzero"/></clipPath></defs><g fill="#000000" fill-opacity="1"><g transform="translate(28.622556, 44.01108)"><g><path d="M 14.246094 -20.304688 L 11.613281 -16.632812 L 5.648438 -25.011719 C 5.585938 -25.074219 5.429688 -25.105469 5.335938 -25.105469 L 0.375 -25.105469 C 0.03125 -25.105469 -0.09375 -24.855469 0.0625 -24.636719 C 3.105469 -20.367188 6.214844 -16.097656 9.226562 -11.800781 L 9.226562 -0.28125 C 9.226562 -0.15625 9.351562 0 9.570312 0 L 13.683594 0 C 13.871094 0 14.027344 -0.15625 14.027344 -0.28125 L 14.027344 -11.800781 L 20.085938 -20.304688 Z M 14.246094 -20.304688 "/></g></g></g><g fill="#000000" fill-opacity="1"><g transform="translate(53.161184, 44.01108)"><g><path d="M 4.519531 -2.195312 C 4.519531 -3.390625 3.515625 -4.425781 2.226562 -4.425781 C 1.003906 -4.425781 0 -3.390625 0 -2.195312 C 0 -0.972656 1.003906 0 2.226562 0 C 3.515625 0 4.519531 -0.972656 4.519531 -2.195312 Z M 4.519531 -2.195312 "/></g></g></g><g fill="#000000" fill-opacity="1"><g transform="translate(61.351586, 44.01108)"><g><path d="M 12.238281 -17.636719 C 12.238281 -14.875 8.535156 -14.875 8.535156 -14.875 L 4.769531 -14.875 L 4.769531 -20.617188 L 8.535156 -20.617188 C 8.535156 -20.617188 12.238281 -20.648438 12.238281 -17.636719 Z M 17.039062 -17.917969 C 17.039062 -25.292969 8.535156 -25.105469 8.535156 -25.105469 L 0.34375 -25.105469 C 0.15625 -25.105469 0 -24.949219 0 -24.824219 L 0 -10.199219 L 8.535156 -10.199219 C 8.535156 -10.199219 12.585938 -10.386719 12.585938 -7.4375 C 12.585938 -5.019531 10.105469 -4.582031 8.535156 -4.582031 L 4.800781 -4.582031 L 4.800781 0 L 8.535156 0 C 10.230469 0 17.386719 -0.3125 17.386719 -7.3125 C 17.386719 -7.3125 17.542969 -11.203125 13.558594 -12.554688 C 15.472656 -13.335938 17.039062 -15 17.039062 -17.917969 Z M 17.039062 -17.917969 "/></g></g></g><g fill="#000000" fill-opacity="1"><g transform="translate(83.066141, 44.01108)"><g><path d="M 11.925781 -4.675781 L 4.800781 -4.675781 L 4.800781 -10.324219 L 14.65625 -10.324219 C 14.84375 -10.324219 15 -10.480469 15 -10.609375 L 15 -14.59375 C 15 -14.75 14.84375 -14.875 14.65625 -14.875 L 4.800781 -14.875 L 4.800781 -20.554688 L 11.925781 -20.554688 L 11.925781 -25.105469 L 0.34375 -25.105469 C 0.15625 -25.105469 0 -24.949219 0 -24.824219 L 0 -0.28125 C 0 -0.15625 0.15625 0 0.34375 0 L 11.925781 0 Z M 11.925781 -4.675781 "/></g></g></g><g fill="#000000" fill-opacity="1"><g transform="translate(102.270413, 44.01108)"><g><path d="M 20.777344 -25.105469 L 16.726562 -25.105469 C 16.507812 -25.105469 16.351562 -24.949219 16.351562 -24.824219 L 16.351562 -8.472656 L 4.769531 -25.011719 C 4.738281 -25.074219 4.550781 -25.105469 4.488281 -25.105469 L 0.3125 -25.105469 C 0.15625 -25.105469 0 -24.949219 0 -24.824219 L 0 -6.027344 L 4.800781 -6.027344 L 4.800781 -16.632812 L 16.351562 -0.09375 C 16.382812 -0.03125 16.570312 0 16.632812 0 L 20.777344 0 C 20.996094 0 21.121094 -0.15625 21.121094 -0.28125 L 21.121094 -24.824219 C 21.121094 -24.949219 20.996094 -25.105469 20.777344 -25.105469 Z M 20.777344 -25.105469 "/></g></g></g><g clip-path="url(#9c5692371d)"><path stroke-linecap="butt" transform="matrix(-0.74707, 0, 0, -0.74707, 149.702353, 4.482537)" fill="none" stroke-linejoin="miter" d="M -0.00103388 2.998847 L 50.660409 2.998847 " stroke="#503530" stroke-width="6" stroke-opacity="1" stroke-miterlimit="4"/></g><g clip-path="url(#14a6e2d1b9)"><path stroke-linecap="butt" transform="matrix(0, -0.74707, 0.74707, 0, 145.220063, 38.305851)" fill="none" stroke-linejoin="miter" d="M 0.00155726 2.99955 L 49.4813 2.99955 " stroke="#503530" stroke-width="6" stroke-opacity="1" stroke-miterlimit="4"/></g><g clip-path="url(#2c185192a6)"><path stroke-linecap="butt" transform="matrix(0.74707, 0, 0, 0.74707, 0.292972, 58.822467)" fill="none" stroke-linejoin="miter" d="M -0.00000470588 2.998423 L 50.661438 2.998423 " stroke="#503530" stroke-width="6" stroke-opacity="1" stroke-miterlimit="4"/></g><g clip-path="url(#7b4cea5481)"><path stroke-linecap="butt" transform="matrix(0, 0.74707, -0.74707, 0, 4.771088, 24.999154)" fill="none" stroke-linejoin="miter" d="M 0.00113179 2.998162 L 49.480875 2.998162 " stroke="#503530" stroke-width="6" stroke-opacity="1" stroke-miterlimit="4"/></g></svg>